<svg width="32" height="32" viewBox="0 0 32 32" fill="none" xmlns="http://www.w3.org/2000/svg">
<path d="M10.1816 13.8183C10.1816 14.1465 10.2171 14.4126 10.2792 14.6077C10.3501 14.8028 10.4388 15.0157 10.563 15.2463C10.6073 15.3172 10.6251 15.3882 10.6251 15.4503C10.6251 15.5389 10.5719 15.6276 10.4566 15.7163L9.8978 16.0888C9.81798 16.142 9.73816 16.1686 9.66721 16.1686C9.57852 16.1686 9.48983 16.1243 9.40114 16.0445C9.27697 15.9114 9.17054 15.7695 9.08185 15.6276C8.99316 15.4769 8.90447 15.3083 8.80691 15.1044C8.11512 15.9203 7.24596 16.3283 6.19941 16.3283C5.45441 16.3283 4.86018 16.1154 4.4256 15.6897C3.99101 15.264 3.76929 14.6964 3.76929 13.9869C3.76929 13.233 4.03536 12.621 4.57637 12.1598C5.11738 11.6986 5.83578 11.468 6.74929 11.468C7.05084 11.468 7.36125 11.4947 7.68941 11.539C8.01756 11.5833 8.35459 11.6543 8.70935 11.7341V11.0867C8.70935 10.4126 8.56744 9.94257 8.2925 9.66763C8.00869 9.39269 7.52977 9.25965 6.84685 9.25965C6.53643 9.25965 6.21715 9.29513 5.88899 9.37495C5.56084 9.45477 5.24155 9.55233 4.93113 9.6765C4.78923 9.73858 4.6828 9.77406 4.62072 9.7918C4.55863 9.80954 4.51429 9.8184 4.47881 9.8184C4.35464 9.8184 4.29256 9.72971 4.29256 9.54346V9.10888C4.29256 8.96698 4.3103 8.86055 4.35464 8.79846C4.39899 8.73638 4.47881 8.6743 4.60298 8.61221C4.91339 8.45257 5.2859 8.31953 5.72048 8.21311C6.15506 8.09781 6.61625 8.04459 7.10405 8.04459C8.15947 8.04459 8.93108 8.28406 9.42774 8.76299C9.91554 9.24192 10.1639 9.96918 10.1639 10.9448V13.8183H10.1816ZM6.58078 15.1664C6.87346 15.1664 7.175 15.1132 7.49429 15.0068C7.81358 14.9004 8.09739 14.7053 8.33685 14.4392C8.47875 14.2707 8.58518 14.0844 8.6384 13.8716C8.69161 13.6587 8.72709 13.4015 8.72709 13.1V12.7275C8.46989 12.6654 8.19494 12.6122 7.91114 12.5767C7.62733 12.5412 7.35238 12.5235 7.07744 12.5235C6.48322 12.5235 6.04863 12.6388 5.75596 12.8782C5.46328 13.1177 5.32137 13.4547 5.32137 13.8982C5.32137 14.315 5.4278 14.6254 5.64953 14.8383C5.86238 15.06 6.1728 15.1664 6.58078 15.1664ZM13.7026 16.1243C13.543 16.1243 13.4366 16.0977 13.3656 16.0356C13.2947 15.9824 13.2326 15.8582 13.1794 15.6897L11.0951 8.83394C11.0419 8.65656 11.0153 8.54126 11.0153 8.47918C11.0153 8.33727 11.0863 8.25745 11.2282 8.25745H12.0973C12.2658 8.25745 12.3811 8.28406 12.4432 8.34614C12.5142 8.39936 12.5674 8.52352 12.6206 8.69203L14.1106 14.5633L15.4942 8.69203C15.5385 8.51465 15.5917 8.39936 15.6627 8.34614C15.7336 8.29293 15.8578 8.25745 16.0175 8.25745H16.727C16.8955 8.25745 17.0108 8.28406 17.0817 8.34614C17.1527 8.39936 17.2148 8.52352 17.2502 8.69203L18.6516 14.6343L20.1859 8.69203C20.2391 8.51465 20.3012 8.39936 20.3633 8.34614C20.4342 8.29293 20.5495 8.25745 20.7092 8.25745H21.534C21.6759 8.25745 21.7557 8.3284 21.7557 8.47918C21.7557 8.52352 21.7469 8.56787 21.738 8.62108C21.7291 8.6743 21.7114 8.74525 21.6759 8.84281L19.5385 15.6986C19.4853 15.876 19.4232 15.9913 19.3522 16.0445C19.2813 16.0977 19.166 16.1332 19.0152 16.1332H18.2525C18.0839 16.1332 17.9686 16.1066 17.8977 16.0445C17.8267 15.9824 17.7647 15.8671 17.7292 15.6897L16.3545 9.96918L14.9886 15.6808C14.9443 15.8582 14.8911 15.9735 14.8201 16.0356C14.7492 16.0977 14.625 16.1243 14.4654 16.1243H13.7026ZM25.0994 16.3638C24.6382 16.3638 24.177 16.3106 23.7335 16.2041C23.2901 16.0977 22.9442 15.9824 22.7136 15.8494C22.5717 15.7695 22.4741 15.6808 22.4386 15.601C22.4032 15.5212 22.3854 15.4325 22.3854 15.3527V14.9004C22.3854 14.7141 22.4564 14.6254 22.5894 14.6254C22.6426 14.6254 22.6958 14.6343 22.7491 14.652C22.8023 14.6698 22.8821 14.7053 22.9708 14.7407C23.2723 14.8738 23.6005 14.9802 23.9464 15.0511C24.3011 15.1221 24.647 15.1576 25.0018 15.1576C25.5606 15.1576 25.9951 15.06 26.2967 14.8649C26.5982 14.6698 26.7579 14.386 26.7579 14.0223C26.7579 13.774 26.6781 13.57 26.5184 13.4015C26.3588 13.233 26.0572 13.0822 25.6226 12.9403L24.3366 12.5412C23.6892 12.3372 23.2103 12.0357 22.9176 11.6366C22.6249 11.2463 22.4741 10.8117 22.4741 10.3505C22.4741 9.97805 22.5539 9.64989 22.7136 9.36608C22.8732 9.08227 23.0861 8.83394 23.3522 8.63882C23.6182 8.43483 23.9198 8.28406 24.2745 8.17763C24.6293 8.0712 25.0018 8.02686 25.392 8.02686C25.5872 8.02686 25.7911 8.03572 25.9863 8.06233C26.1903 8.08894 26.3765 8.12442 26.5628 8.15989C26.7401 8.20424 26.9086 8.24858 27.0683 8.3018C27.2279 8.35501 27.3521 8.40822 27.4408 8.46144C27.565 8.53239 27.6536 8.60334 27.7069 8.68317C27.7601 8.75412 27.7867 8.85168 27.7867 8.97584V9.39269C27.7867 9.57894 27.7157 9.6765 27.5827 9.6765C27.5117 9.6765 27.3964 9.64102 27.2457 9.57007C26.7401 9.33948 26.1725 9.22418 25.5428 9.22418C25.0373 9.22418 24.6382 9.304 24.3632 9.47251C24.0883 9.64102 23.9464 9.89823 23.9464 10.2619C23.9464 10.5102 24.0351 10.723 24.2125 10.8916C24.3898 11.0601 24.718 11.2286 25.1881 11.3794L26.4475 11.7785C27.086 11.9825 27.5472 12.2663 27.8222 12.6299C28.0971 12.9935 28.2301 13.4104 28.2301 13.8716C28.2301 14.2529 28.1503 14.5988 27.9995 14.9004C27.8399 15.2019 27.627 15.468 27.3521 15.6808C27.0772 15.9026 26.749 16.0622 26.3676 16.1775C25.9685 16.3017 25.5517 16.3638 25.0994 16.3638Z" fill="#252F3E"/>
<path d="M26.7757 20.674C23.8578 22.8292 19.6183 23.9733 15.9732 23.9733C10.8646 23.9733 6.26155 22.0842 2.78489 18.9445C2.50994 18.6962 2.75828 18.3592 3.08643 18.5543C6.84691 20.7361 11.4854 22.0576 16.2836 22.0576C19.5208 22.0576 23.0773 21.3835 26.35 20C26.8378 19.7782 27.2546 20.3192 26.7757 20.674ZM27.9907 19.2904C27.6182 18.8115 25.5251 19.0598 24.5761 19.1751C24.2923 19.2106 24.248 18.9623 24.5052 18.776C26.1726 17.6053 28.9131 17.9423 29.2324 18.3326C29.5517 18.7317 29.1437 21.4722 27.5828 22.7848C27.3433 22.9888 27.1127 22.8824 27.2191 22.6163C27.5739 21.7383 28.3632 19.7605 27.9907 19.2904Z" fill="#FF9900"/>
</svg>
