<svg width="32" height="32" viewBox="0 0 32 32" fill="none" xmlns="http://www.w3.org/2000/svg">
<path d="M15.9897 28.0002L9.04593 26.0726L7.49854 8.7168H24.5017L22.9527 26.0699L15.9897 28.0002Z" fill="#264DE4"/>
<path d="M21.6264 24.9647L22.9502 10.1357H16V26.5246L21.6264 24.9647Z" fill="#2965F1"/>
<path d="M11.0459 16.5728L11.2367 18.7013H16.0001V16.5728H11.0459Z" fill="#EBEBEB"/>
<path d="M10.6626 12.2642L10.8561 14.3928H16.0002V12.2642H10.6626Z" fill="#EBEBEB"/>
<path d="M16.0001 22.1009L15.9908 22.1034L13.6201 21.4633L13.4686 19.7656H11.3318L11.63 23.1079L15.9903 24.3183L16.0001 24.3156V22.1009Z" fill="#EBEBEB"/>
<path d="M11.5 4H14.0781V5.07813H12.5781V6.15625H14.0781V7.23438H11.5V4Z" fill="black"/>
<path d="M14.5938 4H17.1719V4.9375H15.6719V5.125H17.1719V7.28125H14.5938V6.29688H16.0937V6.10938H14.5938V4Z" fill="black"/>
<path d="M17.6875 4H20.2656V4.9375H18.7656V5.125H20.2656V7.28125H17.6875V6.29688H19.1875V6.10938H17.6875V4Z" fill="black"/>
<path d="M20.9406 16.5725L21.3249 12.2642H15.9927V14.3928H18.9921L18.7984 16.5725H15.9927V18.7011H18.6138L18.3668 21.4618L15.9927 22.1026V24.3171L20.3565 23.1077L20.3885 22.7481L20.8887 17.1441L20.9406 16.5725Z" fill="white"/>
</svg>
