<svg xmlns="http://www.w3.org/2000/svg" width="56" height="56">
	<path
		d="M28 0C12.535 0 0 12.535 0 28s12.535 28 28 28 28-12.535 28-28S43.465 0 28 0ZM6.016 28.293l21.691 21.691c-11.91-.156-21.535-9.78-21.691-21.691Zm26.906 21.14L6.566 23.079C8.801 13.305 17.546 6.012 28 6.012c7.305 0 13.777 3.566 17.777 9.047l-3.047 2.687c-3.242-4.652-8.628-7.695-14.73-7.695-7.766 0-14.379 4.933-16.879 11.836l22.992 22.992a17.99 17.99 0 0 0 11.317-12.57h-9.532V28h14.09c0 10.453-7.293 19.2-17.066 21.434Zm0 0"
		style="stroke:none;fill-rule:nonzero;fill:#744c9e;fill-opacity:1" />
</svg>