<svg width="32" height="32" viewBox="0 0 32 32" fill="none" xmlns="http://www.w3.org/2000/svg">
<path d="M25.4461 7.90723L23.725 27.1884L15.9883 29.3333L8.27303 27.1914L6.55371 7.90723H25.4461Z" fill="#E44D26"/>
<path d="M16 27.6937L22.2516 25.9606L23.7224 9.48389H16V27.6937Z" fill="#F16529"/>
<path d="M16 14.2143H12.6541L12.8703 16.6362H16V19.0013H10.7073L10.0693 11.8491H16V14.2143Z" fill="#EBEBEB"/>
<path d="M10.813 20.1839H13.1872L13.3556 22.0702L15.9897 22.7815L16 22.7787V25.2394L15.9891 25.2425L11.1443 23.8975L10.813 20.1839Z" fill="#EBEBEB"/>
<path d="M9.5134 2.6665H8.31152V6.26255H9.51345V5.05838H10.6129V6.26255H11.8149V2.6665H10.6129V3.854H9.5134V2.6665Z" fill="black"/>
<path d="M12.3373 3.859H13.3954L13.3955 6.26255H14.5975V3.859H15.656V2.6665H12.3373V3.859Z" fill="black"/>
<path d="M16.1828 2.6665H17.436L18.207 3.93005L18.9771 2.6665H20.2309V6.26255H19.0339V4.48015L18.207 5.75874H18.1863L17.3588 4.48015V6.26255H16.1828V2.6665Z" fill="black"/>
<path d="M22.0314 2.6665H20.8291V6.26255H23.7216V5.0739H22.0314V2.6665Z" fill="black"/>
<path d="M15.9917 14.2143V11.8491H21.9164L21.7046 14.2143H15.9917Z" fill="white"/>
<path d="M18.9041 19.0013H15.9917V16.6362H21.4894L21.4317 17.2713L20.8403 23.8975L15.9917 25.2413V22.7807L18.6296 22.0687L18.9041 19.0013Z" fill="white"/>
</svg>
