<svg xmlns="http://www.w3.org/2000/svg" width="32" height="32" fill="none">
	<path fill="#FFCA28" d="M4 4h24v24H4z" />
	<path fill="#3E3E3E"
		d="m18.571 23.96 1.767-1.168c.139.435 1.016 1.468 2.123 1.468 1.108 0 1.623-.605 1.623-1.006 0-1.093-1.132-1.479-1.675-1.664-.088-.03-.161-.055-.211-.076a2.912 2.912 0 0 0-.114-.045c-.604-.231-2.833-1.083-2.833-3.551 0-2.72 2.624-3.032 3.217-3.032.388 0 2.255.047 3.185 1.794l-1.714 1.197c-.376-.762-1-1.013-1.385-1.013-.95 0-1.147.696-1.147 1.013 0 .889 1.031 1.287 1.902 1.624.228.088.445.172.63.259.949.448 2.347 1.183 2.347 3.494 0 1.157-.971 3.032-3.416 3.032-3.283 0-4.154-1.972-4.299-2.325ZM10 24.193l1.842-1.169c.144.435.705 1.237 1.518 1.237.814 0 1.23-.836 1.23-1.237v-7.881h2.266v7.881c.036 1.087-.567 3.262-3.228 3.262-2.446 0-3.463-1.454-3.628-2.093Z" />
</svg>