<svg xmlns="http://www.w3.org/2000/svg" width="53" height="32"><path d="M12.531 8.422h9.977v.793h-9.063v5.988h8.52v.793h-8.52v6.574h9.164v.793H12.531Zm10.867 0h1.063l4.695 6.57 4.801-6.57L40.484.074l-10.726 15.61 5.527 7.68h-1.101l-5.028-6.989-5.05 6.988h-1.079l5.567-7.68Zm12.282.793v-.793h11.367v.793h-5.234v14.148h-.915V9.215ZM.05 8.422h1.145l15.762 23.656-6.516-8.715L1.008 9.551.965 23.363H.05Zm46.907 13.906a.324.324 0 0 0 .328-.332.324.324 0 0 0-.328-.332.324.324 0 0 0-.328.332c0 .188.14.332.328.332Zm.898-.875c0 .555.399.914.977.914.621 0 .992-.37.992-1.02v-2.28h-.496v2.277c0 .363-.18.554-.5.554-.285 0-.476-.18-.484-.445Zm2.622-.031c.035.578.515.945 1.226.945.762 0 1.234-.387 1.234-1 0-.484-.269-.754-.93-.91l-.35-.086c-.419-.098-.587-.23-.587-.46 0-.29.262-.481.657-.481.37 0 .628.187.675.484h.485c-.028-.543-.504-.926-1.157-.926-.699 0-1.167.383-1.167.957 0 .473.265.754.847.89l.414.102c.422.102.61.247.61.493 0 .285-.293.496-.692.496-.43 0-.73-.196-.77-.504Zm0 0" style="stroke:none;fill-rule:nonzero;fill:#000;fill-opacity:1"/></svg>