<svg xmlns="http://www.w3.org/2000/svg" width="63" height="32">
	<path
		d="M31.5 32c17.305 0 31.332-7.164 31.332-16.004C62.832 7.164 48.805 0 31.5 0S.168 7.164.168 16.004C.168 24.836 14.195 32 31.5 32Zm16.543-19.156c-.238-.27-.871-.403-1.902-.403h-1.555l-.914 4.723h.894c.625 0 1.157-.055 1.602-.168.387-.098.7-.238.934-.418a2.19 2.19 0 0 0 .586-.738c.183-.356.332-.797.433-1.328.098-.492.121-.899.082-1.223-.027-.21-.078-.36-.16-.445Zm-20.05-9.32h3.472a1.03 1.03 0 0 1 .988 1.285l-.582 3.02h1.86c1.054 0 1.956.097 2.71.284.836.219 1.504.551 2.004 1.012.434.402.739.895.922 1.48l.363-1.882a1.027 1.027 0 0 1 1.012-.895h6.73c1.122 0 2.11.152 2.97.465.902.332 1.644.828 2.226 1.496.586.68.969 1.48 1.145 2.41.16.88.14 1.856-.067 2.942a9.401 9.401 0 0 1-.351 1.289 8.153 8.153 0 0 1-.536 1.187 8.427 8.427 0 0 1-1.625 2.05 7.34 7.34 0 0 1-1.27.97 7.021 7.021 0 0 1-1.425.66 8.728 8.728 0 0 1-1.644.351c-.606.079-1.254.122-1.938.122h-2.156l-.672 3.41a1.027 1.027 0 0 1-1.012.894h-3.496a1.036 1.036 0 0 1-1.008-1.223l.606-3.117c-.082.02-.172.028-.258.028h-3.527a1.024 1.024 0 0 1-.989-1.282l1.364-7.097c.062-.317.082-.555.062-.73-.004-.051.035-.028.02-.048l-.141-.035c-.203-.05-.492-.078-.86-.078h-1.937l-1.617 8.445c-.09.493-.52.833-.996.833h-3.473a1.03 1.03 0 0 1-.992-1.286l.184-.96-.153.144a7.34 7.34 0 0 1-1.27.969c-.46.277-.933.496-1.429.66a8.618 8.618 0 0 1-1.64.351c-.606.079-1.255.122-1.938.122h-2.164l-.656 3.41a1.027 1.027 0 0 1-1.012.894H10.3a1.033 1.033 0 0 1-1.004-1.223l3.11-16.128a1.027 1.027 0 0 1 1.011-.895h6.73c1.122 0 2.11.152 2.97.465.905.332 1.644.828 2.226 1.496.176.2.332.418.476.645l1.172-6.07c.09-.493.52-.84 1-.84Zm-7.263 9.32c-.242-.27-.875-.403-1.902-.403h-1.562l-.91 4.723h.89c.629 0 1.156-.055 1.602-.168.386-.098.699-.238.933-.418.23-.176.422-.422.586-.738.184-.356.332-.797.434-1.328.097-.492.12-.899.082-1.223-.028-.21-.078-.36-.153-.445Zm0 0"
		style="stroke:none;fill-rule:evenodd;fill:#6884ba;fill-opacity:1" />
	<path
		d="M46.14 11.414c1.333 0 2.22.246 2.657.738.445.496.547 1.344.316 2.551-.238 1.254-.707 2.149-1.394 2.684-.692.531-1.746.8-3.153.8h-2.129l1.31-6.777h2.394Zm-18.148-6.86h3.473l-.832 4.305h3.097c1.946 0 3.29.344 4.028 1.028.738.683.957 1.793.664 3.324l-1.453 7.535h-3.532l1.383-7.164c.157-.816.098-1.371-.172-1.664-.277-.3-.855-.45-1.746-.45H30.13l-1.79 9.278h-3.472Zm-9.164 6.86c1.328 0 2.219.246 2.656.738.446.496.551 1.344.317 2.551-.238 1.254-.711 2.149-1.399 2.684-.687.531-1.742.8-3.152.8h-2.125l1.305-6.777h2.398Zm-8.527 13.633h3.496l.832-4.305h3c1.32 0 2.41-.14 3.262-.422.859-.277 1.632-.75 2.332-1.41a7.103 7.103 0 0 0 1.422-1.797 7.269 7.269 0 0 0 .777-2.168c.371-1.918.09-3.414-.836-4.488-.93-1.066-2.41-1.61-4.434-1.61h-6.73Zm27.312 0h3.5l.832-4.305h2.996c1.325 0 2.414-.14 3.266-.422.855-.277 1.633-.75 2.332-1.41a7.19 7.19 0 0 0 1.422-1.797c.36-.652.621-1.379.773-2.168.375-1.918.094-3.414-.836-4.488-.925-1.066-2.406-1.61-4.43-1.61h-6.734Zm0 0"
		style="stroke:none;fill-rule:evenodd;fill:#000;fill-opacity:1" />
</svg>