<svg width="32" height="32" viewBox="0 0 32 32" fill="none" xmlns="http://www.w3.org/2000/svg">
<path d="M23.7328 12.2442C23.4838 12.1585 23.2259 12.0774 22.9602 12.0007C23.0039 11.8226 23.044 11.6467 23.0796 11.4738C23.6644 8.63495 23.282 6.34795 21.9763 5.59498C20.7243 4.87297 18.6767 5.62578 16.6087 7.42547C16.4099 7.59853 16.2104 7.78175 16.0111 7.97378C15.8783 7.84673 15.7457 7.72395 15.6134 7.60652C13.4461 5.68217 11.2738 4.87122 9.96931 5.62637C8.71847 6.35047 8.34805 8.50047 8.87449 11.1909C8.92532 11.4507 8.98475 11.7161 9.05194 11.9859C8.74449 12.0732 8.44767 12.1662 8.16367 12.2652C5.62275 13.1511 4 14.5395 4 15.9796C4 17.467 5.74202 18.9588 8.38859 19.8634C8.59745 19.9348 8.81417 20.0023 9.0375 20.0664C8.96501 20.3582 8.90195 20.6442 8.84903 20.9231C8.34707 23.5668 8.73906 25.666 9.98656 26.3855C11.2751 27.1286 13.4377 26.3648 15.5435 24.5241C15.7099 24.3786 15.8769 24.2243 16.0443 24.0626C16.2611 24.2714 16.4777 24.4691 16.6931 24.6545C18.7328 26.4097 20.7473 27.1185 21.9937 26.3969C23.2809 25.6517 23.6993 23.3967 23.1561 20.6531C23.1147 20.4435 23.0664 20.2295 23.0122 20.0116C23.164 19.9667 23.3131 19.9203 23.4585 19.8721C26.2099 18.9606 28 17.4869 28 15.9796C28 14.5343 26.3249 13.1365 23.7328 12.2442ZM23.1361 18.899C23.0048 18.9424 22.8702 18.9844 22.733 19.0251C22.4292 18.0635 22.0193 17.041 21.5176 15.9846C21.9963 14.9534 22.3904 13.9439 22.6857 12.9886C22.9312 13.0596 23.1695 13.1346 23.3991 13.2136C25.62 13.9782 26.9747 15.1086 26.9747 15.9796C26.9747 16.9074 25.5117 18.1118 23.1361 18.899ZM22.1504 20.8522C22.3905 22.0654 22.4248 23.1622 22.2657 24.0197C22.1228 24.7902 21.8353 25.3039 21.4799 25.5097C20.7236 25.9474 19.1061 25.3784 17.3617 23.8773C17.1618 23.7052 16.9603 23.5215 16.7583 23.327C17.4345 22.5874 18.1104 21.7276 18.77 20.7727C19.9303 20.6697 21.0264 20.5014 22.0204 20.2716C22.0694 20.4691 22.1129 20.6628 22.1504 20.8522ZM12.1821 25.434C11.4432 25.695 10.8546 25.7024 10.4989 25.4973C9.74182 25.0607 9.42711 23.3752 9.8564 21.1143C9.90557 20.8554 9.96409 20.5894 10.0315 20.3175C11.0147 20.5349 12.1028 20.6914 13.2658 20.7857C13.9299 21.7201 14.6253 22.579 15.3261 23.331C15.1729 23.4788 15.0204 23.6195 14.8688 23.7521C13.9376 24.5661 13.0045 25.1435 12.1821 25.434ZM8.72018 18.8933C7.54992 18.4933 6.58347 17.9734 5.92102 17.4062C5.32576 16.8964 5.02523 16.3903 5.02523 15.9796C5.02523 15.1057 6.32814 13.991 8.50116 13.2334C8.76482 13.1414 9.04084 13.0548 9.32727 12.9734C9.62759 13.9503 10.0216 14.9717 10.497 16.0046C10.0154 17.0527 9.61584 18.0904 9.31258 19.0788C9.10838 19.0201 8.91054 18.9583 8.72018 18.8933ZM9.88066 10.994C9.42963 8.68891 9.72918 6.95004 10.483 6.51371C11.2859 6.04887 13.0614 6.71163 14.9326 8.37321C15.0523 8.47941 15.1723 8.59057 15.2928 8.70557C14.5955 9.45431 13.9064 10.3067 13.2483 11.2356C12.1195 11.3403 11.039 11.5083 10.0456 11.7334C9.98319 11.4821 9.92787 11.2353 9.88066 10.994ZM20.2332 13.5503C19.9957 13.1401 19.7519 12.7396 19.5034 12.35C20.2691 12.4468 21.0028 12.5753 21.6918 12.7326C21.4849 13.3955 21.2271 14.0886 20.9236 14.7992C20.7059 14.3859 20.4757 13.9691 20.2332 13.5503ZM16.0114 9.43829C16.4844 9.95063 16.9579 10.5226 17.4238 11.1433C16.9544 11.1211 16.4791 11.1096 16 11.1096C15.5254 11.1096 15.0537 11.1209 14.5872 11.1426C15.0535 10.5278 15.5312 9.95653 16.0114 9.43829ZM11.7627 13.5574C11.5255 13.9687 11.2995 14.3832 11.0852 14.7984C10.7866 14.0903 10.5312 13.3941 10.3226 12.7217C11.0073 12.5685 11.7375 12.4432 12.4984 12.3482C12.2464 12.7414 12.0005 13.1448 11.7627 13.5573V13.5574ZM12.5203 19.6841C11.7342 19.5964 10.993 19.4776 10.3084 19.3286C10.5204 18.6443 10.7814 17.9331 11.0863 17.2098C11.3012 17.6247 11.5281 18.0393 11.7667 18.4516H11.7668C12.0099 18.8716 12.2618 19.283 12.5203 19.6841ZM16.0398 22.5932C15.5539 22.0689 15.0692 21.489 14.5958 20.8651C15.0553 20.8832 15.5238 20.8924 16 20.8924C16.4892 20.8924 16.9728 20.8814 17.4488 20.8602C16.9814 21.4952 16.5095 22.0761 16.0398 22.5932ZM20.9334 17.1729C21.2542 17.9041 21.5246 18.6115 21.7393 19.2842C21.0434 19.4429 20.2921 19.5708 19.5005 19.6658C19.7497 19.271 19.9956 18.8636 20.2373 18.4445C20.4818 18.0206 20.7139 17.596 20.9334 17.1729ZM19.3492 17.9323C18.974 18.5828 18.5889 19.2038 18.1978 19.79C17.4857 19.8409 16.7499 19.8671 16 19.8671C15.2531 19.8671 14.5266 19.8439 13.8271 19.7985C13.4203 19.2047 13.0268 18.5818 12.654 17.9379H12.6541C12.2823 17.2958 11.9401 16.6482 11.63 16.0042C11.94 15.3588 12.2813 14.7105 12.6509 14.0694L12.6509 14.0696C13.0215 13.4269 13.4116 12.8071 13.8146 12.217C14.5284 12.163 15.2603 12.1348 16 12.1348H16C16.743 12.1348 17.4759 12.1632 18.1894 12.2176C18.5863 12.8035 18.9737 13.4212 19.3458 14.064C19.7221 14.714 20.0678 15.358 20.3804 15.9897C20.0688 16.6321 19.7238 17.2826 19.3492 17.9323ZM21.4642 6.4832C22.2679 6.94667 22.5804 8.81583 22.0755 11.2669C22.0433 11.4233 22.007 11.5826 21.9676 11.744C20.9719 11.5143 19.8907 11.3433 18.7586 11.2371C18.0992 10.298 17.4158 9.44423 16.7298 8.7051C16.9142 8.52768 17.0984 8.35851 17.2818 8.19887C19.0536 6.6569 20.7097 6.0481 21.4642 6.4832ZM16 13.8365C17.1836 13.8365 18.1431 14.796 18.1431 15.9796C18.1431 17.1632 17.1836 18.1227 16 18.1227C14.8164 18.1227 13.8569 17.1632 13.8569 15.9796C13.8569 14.796 14.8164 13.8365 16 13.8365Z" fill="#00D8FF"/>
</svg>
