<svg xmlns="http://www.w3.org/2000/svg" width="56" height="56"><path d="M0 19.414c0-9.152 0-13.727 2.844-16.57C5.688 0 10.262 0 19.414 0h17.172c9.152 0 13.727 0 16.57 2.844C56 5.688 56 10.262 56 19.414v17.172c0 9.152 0 13.727-2.844 16.57C50.313 56 45.738 56 36.586 56H19.414c-9.152 0-13.727 0-16.57-2.844C0 50.313 0 45.738 0 36.586Zm0 0" style="stroke:none;fill-rule:nonzero;fill:#4945ff;fill-opacity:1"/><path d="M38.64 16.988H19.786v9.614h9.613v9.613h9.614V17.359a.368.368 0 0 0-.371-.37Zm0 0" style="stroke:none;fill-rule:evenodd;fill:#fff;fill-opacity:1"/><path d="M29.027 26.602h.371v.37h-.37Zm0 0" style="stroke:none;fill-rule:nonzero;fill:#fff;fill-opacity:1"/><path d="M19.785 26.602h9.242c.207 0 .371.164.371.37v9.243H20.16a.375.375 0 0 1-.375-.375ZM29.398 36.215h9.614l-9.293 9.293a.188.188 0 0 1-.32-.133ZM19.785 26.602h-9.16a.188.188 0 0 1-.133-.32l9.293-9.294Zm0 0" style="stroke:none;fill-rule:nonzero;fill:#9593ff;fill-opacity:1"/></svg>