<svg width="32" height="32" viewBox="0 0 32 32" fill="none" xmlns="http://www.w3.org/2000/svg">
	<path
		d="M16.0001 8C12.4445 8 10.2223 9.77778 9.33342 13.3333C10.6667 11.5556 12.2223 10.8889 14.0001 11.3333C15.0144 11.5869 15.7394 12.3228 16.5419 13.1373C17.8491 14.4642 19.3621 16 22.6667 16C26.2223 16 28.4445 14.2222 29.3334 10.6667C28.0001 12.4444 26.4445 13.1111 24.6667 12.6667C23.6524 12.4131 22.9274 11.6772 22.125 10.8627C20.8177 9.53575 19.3047 8 16.0001 8ZM9.33342 16C5.77786 16 3.55564 17.7778 2.66675 21.3333C4.00008 19.5556 5.55564 18.8889 7.33341 19.3333C8.34774 19.5869 9.07272 20.3228 9.87519 21.1373C11.1825 22.4642 12.6954 24 16.0001 24C19.5556 24 21.7779 22.2222 22.6667 18.6667C21.3334 20.4444 19.7779 21.1111 18.0001 20.6667C16.9858 20.4131 16.2608 19.6772 15.4583 18.8627C14.151 17.5358 12.6381 16 9.33342 16Z"
		fill="url(#paint0_linear_131_266147)" />
	<defs>
		<linearGradient id="paint0_linear_131_266147" x1="1.92601" y1="13.12" x2="24.957" y2="26.3992"
			gradientUnits="userSpaceOnUse">
			<stop stop-color="#2298BD" />
			<stop offset="1" stop-color="#0ED7B5" />
		</linearGradient>
	</defs>
</svg>